#N canvas 0 23 1212 710 10;
#X declare -lib mrpeach;
#X obj 15 187 unpackOSC;
#X obj 26 225 print unpacked;
#X obj 16 64 import mrpeach;
#X obj 15 113 udpreceive 3010;
#X obj 15 510 unpack f f f f f f f f f;
#X floatatom 15 605 10 0 0 0 - - -;
#X obj 15 561 f;
#X floatatom 82 605 10 0 0 0 - - -;
#X obj 82 561 f;
#X floatatom 150 605 10 0 0 0 - - -;
#X obj 150 561 f;
#X floatatom 220 605 10 0 0 0 - - -;
#X obj 220 561 f;
#X floatatom 287 605 10 0 0 0 - - -;
#X obj 287 561 f;
#X floatatom 355 605 10 0 0 0 - - -;
#X obj 355 561 f;
#X floatatom 426 605 10 0 0 0 - - -;
#X obj 426 561 f;
#X floatatom 493 605 10 0 0 0 - - -;
#X obj 493 561 f;
#X floatatom 561 605 10 0 0 0 - - -;
#X obj 561 561 f;
#X text 35 631 ax;
#X text 105 631 ay;
#X text 172 631 az;
#X text 240 631 gx;
#X text 310 631 gy;
#X text 377 631 gz;
#X text 442 631 mx;
#X text 512 631 my;
#X text 579 631 mz;
#X obj 16 275 routeOSC /sensorData /sensorRep /xmm;
#X obj 87 414 unpack b b b;
#X obj 87 448 tgl 15 0 empty empty empty 17 7 0 10 -262144 -1 -1 0
1;
#X obj 121 448 tgl 15 0 empty empty empty 17 7 0 10 -262144 -1 -1 0
1;
#X obj 156 448 tgl 15 0 empty empty empty 17 7 0 10 -262144 -1 -1 1
1;
#X obj 158 317 unpack i f;
#X floatatom 158 350 5 0 0 0 - - -;
#X floatatom 215 350 5 0 0 0 - - -;
#X text 65 470 repAcc;
#X text 111 470 repGyr;
#X text 159 470 repMag;
#X text 149 375 gestID;
#X text 207 375 gestProgression;
#X obj 473 413 udpsend;
#X obj 473 312 packOSC;
#X msg 473 243 send /vibroNow \$1;
#X obj 473 210 tgl 15 0 empty empty empty 17 7 0 10 -262144 -1 -1 0
1;
#X msg 494 379 connect 127.0.0.1 3011;
#X obj 494 341 loadbang;
#X obj 695 166 pack i i i;
#X floatatom 656 122 10 0 0 0 - - -;
#X floatatom 723 122 10 0 0 0 - - -;
#X floatatom 791 122 10 0 0 0 - - -;
#X msg 631 243 send /vibroPulse \$1 \$2 \$3;
#X text 438 179 Vibrator ON/OFF;
#X text 648 94 Vibrator PULSE ON / OFF / N repetitions;
#X obj 631 209 list;
#X obj 631 181 bng 15 250 50 0 empty empty empty 17 7 0 10 -262144
-1 -1;
#X text 621 156 Pulse!;
#X text 128 62 <-- import library;
#X connect 0 0 1 0;
#X connect 0 0 32 0;
#X connect 3 0 0 0;
#X connect 4 0 6 0;
#X connect 4 1 8 0;
#X connect 4 2 10 0;
#X connect 4 3 12 0;
#X connect 4 4 14 0;
#X connect 4 5 16 0;
#X connect 4 6 18 0;
#X connect 4 7 20 0;
#X connect 4 8 22 0;
#X connect 6 0 5 0;
#X connect 8 0 7 0;
#X connect 10 0 9 0;
#X connect 12 0 11 0;
#X connect 14 0 13 0;
#X connect 16 0 15 0;
#X connect 18 0 17 0;
#X connect 20 0 19 0;
#X connect 22 0 21 0;
#X connect 32 0 4 0;
#X connect 32 1 33 0;
#X connect 32 2 37 0;
#X connect 33 0 34 0;
#X connect 33 1 35 0;
#X connect 33 2 36 0;
#X connect 37 0 38 0;
#X connect 37 1 39 0;
#X connect 46 0 45 0;
#X connect 47 0 46 0;
#X connect 48 0 47 0;
#X connect 49 0 45 0;
#X connect 50 0 49 0;
#X connect 51 0 58 1;
#X connect 52 0 51 0;
#X connect 53 0 51 1;
#X connect 54 0 51 2;
#X connect 55 0 46 0;
#X connect 58 0 55 0;
#X connect 59 0 58 0;
